<?xml version="1.0" encoding="UTF-8"?>
<!DOCTYPE svg PUBLIC "-//W3C//DTD SVG 1.1//EN" "http://www.w3.org/Graphics/SVG/1.1/DTD/svg11.dtd">
<!-- Creator: CorelDRAW 2019 (64-Bit) -->
<svg xmlns="http://www.w3.org/2000/svg" xml:space="preserve" width="6.94444in" height="6.94444in" version="1.1" style="shape-rendering:geometricPrecision; text-rendering:geometricPrecision; image-rendering:optimizeQuality; fill-rule:evenodd; clip-rule:evenodd"
viewBox="0 0 6944.44 6944.44"
 xmlns:xlink="http://www.w3.org/1999/xlink">
 <defs>
  <style type="text/css">
   <![CDATA[
    .fil25 {fill:#F4AF98;fill-rule:nonzero}
    .fil7 {fill:#EF8779;fill-rule:nonzero}
    .fil19 {fill:#EB6659;fill-rule:nonzero}
    .fil12 {fill:#F5B998;fill-rule:nonzero}
    .fil8 {fill:#FBFDFE;fill-rule:nonzero}
    .fil6 {fill:#FBD753;fill-rule:nonzero}
    .fil9 {fill:#F7F9F8;fill-rule:nonzero}
    .fil23 {fill:#EAA07B;fill-rule:nonzero}
    .fil0 {fill:#E4EFF5;fill-rule:nonzero}
    .fil1 {fill:#D6E2E9;fill-rule:nonzero}
    .fil2 {fill:#C7D5DE;fill-rule:nonzero}
    .fil26 {fill:#B5BDC0;fill-rule:nonzero}
    .fil29 {fill:#B0BFCC;fill-rule:nonzero}
    .fil36 {fill:#9EAEBA;fill-rule:nonzero}
    .fil27 {fill:#8A9CA5;fill-rule:nonzero}
    .fil31 {fill:#7A7BB9;fill-rule:nonzero}
    .fil5 {fill:#6366AC;fill-rule:nonzero}
    .fil37 {fill:#6366AC;fill-rule:nonzero}
    .fil17 {fill:#59548D;fill-rule:nonzero}
    .fil15 {fill:#374D64;fill-rule:nonzero}
    .fil4 {fill:#2F4F6D;fill-rule:nonzero}
    .fil13 {fill:#3D407D;fill-rule:nonzero}
    .fil14 {fill:#24303E;fill-rule:nonzero}
    .fil3 {fill:#213750;fill-rule:nonzero}
    .fil28 {fill:#292F5C;fill-rule:nonzero}
    .fil33 {fill:url(#id0)}
    .fil32 {fill:url(#id1)}
    .fil30 {fill:url(#id2)}
    .fil35 {fill:url(#id3)}
    .fil34 {fill:url(#id4)}
    .fil18 {fill:url(#id5)}
    .fil16 {fill:url(#id6)}
    .fil20 {fill:url(#id7)}
    .fil10 {fill:url(#id8)}
    .fil22 {fill:url(#id9)}
    .fil21 {fill:url(#id10)}
    .fil11 {fill:url(#id11)}
    .fil24 {fill:url(#id12)}
   ]]>
  </style>
  <linearGradient id="id0" gradientUnits="userSpaceOnUse" x1="4535.89" y1="4524.87" x2="5104.39" y2="4711.87">
   <stop offset="0" style="stop-opacity:1; stop-color:#6268AD"/>
   <stop offset="1" style="stop-opacity:1; stop-color:#5A4496"/>
  </linearGradient>
  <linearGradient id="id1" gradientUnits="userSpaceOnUse" xlink:href="#id0" x1="4521.77" y1="4456.52" x2="5091.14" y2="4772.71">
  </linearGradient>
  <linearGradient id="id2" gradientUnits="userSpaceOnUse" xlink:href="#id0" x1="5328.12" y1="4149.62" x2="5328.33" y2="5021.94">
  </linearGradient>
  <linearGradient id="id3" gradientUnits="userSpaceOnUse" xlink:href="#id0" x1="4778.9" y1="4391.92" x2="5336.57" y2="4580.87">
  </linearGradient>
  <linearGradient id="id4" gradientUnits="userSpaceOnUse" xlink:href="#id0" x1="4726.95" y1="4280.32" x2="5358.53" y2="4681.22">
  </linearGradient>
  <radialGradient id="id5" gradientUnits="userSpaceOnUse" gradientTransform="matrix(0.979112 -0 -0 -0.979131 58 10709)" cx="2756.92" cy="5410.91" r="104.99" fx="2756.92" fy="5410.91">
   <stop offset="0" style="stop-opacity:1; stop-color:#F9D0B7"/>
   <stop offset="1" style="stop-opacity:1; stop-color:#F7C1A0"/>
  </radialGradient>
  <radialGradient id="id6" gradientUnits="userSpaceOnUse" gradientTransform="matrix(0.947128 -0 -0 -0.947113 184 10481)" xlink:href="#id5" cx="3471.7" cy="5382.6" r="119.16" fx="3471.7" fy="5382.6">
  </radialGradient>
  <radialGradient id="id7" gradientUnits="userSpaceOnUse" gradientTransform="matrix(3.17559 0.509841 0.509836 -3.17555 -9135 12812)" xlink:href="#id5" cx="3382.96" cy="3481.38" r="178.97" fx="3382.96" fy="3481.38">
  </radialGradient>
  <radialGradient id="id8" gradientUnits="userSpaceOnUse" gradientTransform="matrix(0.975761 -0 -0 -0.975761 94 5279)" xlink:href="#id5" cx="3868.11" cy="2671.93" r="183.98" fx="3868.11" fy="2671.93">
  </radialGradient>
  <radialGradient id="id9" gradientUnits="userSpaceOnUse" gradientTransform="matrix(7.44668 1.25443 1.25443 -7.44668 -25971 25141)" xlink:href="#id5" cx="3352.56" cy="3474.38" r="74.73" fx="3352.56" fy="3474.38">
  </radialGradient>
  <radialGradient id="id10" gradientUnits="userSpaceOnUse" gradientTransform="matrix(3.65883 0.502025 0.502028 -3.65886 -10677 14240)" xlink:href="#id5" cx="3369.93" cy="3419.59" r="150.18" fx="3369.93" fy="3419.59">
  </radialGradient>
  <radialGradient id="id11" gradientUnits="userSpaceOnUse" gradientTransform="matrix(0.912654 -0.183934 -0.196515 -0.854221 794 5088)" xlink:href="#id5" cx="3752.35" cy="2371.95" r="288.43" fx="3752.35" fy="2371.95">
  </radialGradient>
  <radialGradient id="id12" gradientUnits="userSpaceOnUse" gradientTransform="matrix(1.21668 0.188571 0.195338 -1.17453 -1411 6922)" xlink:href="#id5" cx="3380.01" cy="3476.3" r="467.12" fx="3380.01" fy="3476.3">
  </radialGradient>
 </defs>
 <g id="Layer_x0020_1">
  <metadata id="CorelCorpID_0Corel-Layer"/>
  <path class="fil0" d="M6467.79 4230.35l-218.99 1537.63 -5568.28 0 -164.45 -1173c-18.29,-131.42 54.37,-258.78 176.98,-309.76l494.2 -205.09 0 -491.5c0,-144.8 106.02,-267.58 249.31,-288.41l116.85 -17.11 196.29 -663.72c36.59,-123.99 150.41,-208.82 279.46,-208.82l2007.78 0c76.38,0 146.32,29.46 198.49,77.9 52.17,48.61 86.56,116.18 92.14,192.39l956.04 100.94c141.93,15.07 252.01,130.4 260.48,272.85l38.61 663.22 675.59 190.86c140.57,39.63 229.98,177.15 209.5,321.63z"/>
  <path class="fil1" d="M1014.37 4547.46l173.81 1220.52 4419.87 0 130.54 -931.07c14.53,-104.33 -43.15,-205.42 -140.48,-245.87l-392.28 -162.81 0 -390.13c0,-114.93 -84.14,-212.4 -197.87,-228.93l-92.76 -13.58 -155.81 -526.85c-29.04,-98.41 -119.37,-165.75 -221.82,-165.75l-1593.69 0c-60.63,0 -116.14,23.39 -157.56,61.83 -41.41,38.58 -68.7,92.22 -73.13,152.72l-758.87 80.11c-112.65,11.97 -200.04,103.52 -206.76,216.59l-30.65 526.43 -536.24 151.5c-111.58,31.47 -182.56,140.63 -166.29,255.29z"/>
  <path class="fil2" d="M4660.72 5313.18c0,-131.56 -96.32,-243.09 -226.47,-262.03l-106.17 -15.54 -178.33 -602.97c-33.22,-112.61 -136.63,-189.7 -253.86,-189.7l-1823.97 0c-69.39,0 -132.94,26.77 -180.32,70.78 -47.39,44.15 -78.63,105.54 -83.71,174.78l-789.69 83.37 170.35 1196.1 3492.18 0 -20.01 -8.31 0 -446.49z"/>
  <polygon class="fil3" points="1669.87,2641.28 3024.8,2641.28 3024.8,1376.65 1669.87,1376.65 "/>
  <polygon class="fil4" points="1669.87,1510.39 3024.8,1510.39 3024.8,1376.64 1669.87,1376.64 "/>
  <path class="fil5" d="M2731.91 1445.03c0,13.54 -10.97,24.53 -24.5,24.53 -13.56,0 -24.53,-10.99 -24.53,-24.53 0,-13.54 10.97,-24.52 24.53,-24.52 13.53,0 24.5,10.97 24.5,24.52z"/>
  <path class="fil6" d="M2834.29 1445.03c0,13.54 -10.97,24.53 -24.52,24.53 -13.54,0 -24.51,-10.99 -24.51,-24.53 0,-13.54 10.97,-24.52 24.51,-24.52 13.54,0 24.52,10.97 24.52,24.52z"/>
  <path class="fil7" d="M2929.35 1447.61c0,13.54 -10.97,24.51 -24.52,24.51 -13.54,0 -24.51,-10.97 -24.51,-24.51 0,-13.54 10.97,-24.52 24.51,-24.52 13.54,0 24.52,10.97 24.52,24.52z"/>
  <polygon class="fil7" points="1910.8,1650.85 2102.7,1650.85 2102.7,1634.72 1910.8,1634.72 "/>
  <polygon class="fil6" points="2136.04,1650.85 2327.94,1650.85 2327.94,1634.72 2136.04,1634.72 "/>
  <polygon class="fil5" points="1970.17,1737.74 2267.73,1737.74 2267.73,1721.61 1970.17,1721.61 "/>
  <polygon class="fil7" points="2316.94,1737.74 2468.2,1737.74 2468.2,1721.61 2316.94,1721.61 "/>
  <polygon class="fil6" points="2073.39,1824.62 2204.08,1824.62 2204.08,1808.48 2073.39,1808.48 "/>
  <polygon class="fil6" points="2279.62,1824.62 2713.21,1824.62 2713.21,1808.48 2279.62,1808.48 "/>
  <polygon class="fil5" points="2174.9,1911.5 2670.41,1911.5 2670.41,1895.37 2174.9,1895.37 "/>
  <polygon class="fil7" points="2051.01,1998.39 2203.51,1998.39 2203.51,1982.26 2051.01,1982.26 "/>
  <polygon class="fil5" points="2268.76,1998.39 2421.26,1998.39 2421.26,1982.26 2268.76,1982.26 "/>
  <polygon class="fil7" points="1910.8,2449.17 2132.66,2449.17 2132.66,2433.04 1910.8,2433.04 "/>
  <polygon class="fil6" points="2210.36,2449.17 2432.2,2449.17 2432.2,2433.04 2210.36,2433.04 "/>
  <polygon class="fil7" points="2501.85,2449.17 2723.69,2449.17 2723.69,2433.04 2501.85,2433.04 "/>
  <polygon class="fil5" points="1970.17,2362.28 2403.74,2362.28 2403.74,2346.15 1970.17,2346.15 "/>
  <polygon class="fil7" points="2471.35,2362.28 2904.9,2362.28 2904.9,2346.15 2471.35,2346.15 "/>
  <polygon class="fil7" points="2073.39,2275.39 2503.64,2275.39 2503.64,2259.26 2073.39,2259.26 "/>
  <polygon class="fil6" points="2541.15,2275.39 2660.91,2275.39 2660.91,2259.26 2541.15,2259.26 "/>
  <polygon class="fil6" points="2045.29,2188.5 2207.26,2188.5 2207.26,2172.37 2045.29,2172.37 "/>
  <polygon class="fil5" points="2293.28,2188.5 2455.25,2188.5 2455.25,2172.37 2293.28,2172.37 "/>
  <polygon class="fil7" points="2559.41,2188.5 2721.38,2188.5 2721.38,2172.37 2559.41,2172.37 "/>
  <polygon class="fil6" points="2233.04,2101.62 2460.17,2101.62 2460.17,2085.48 2233.04,2085.48 "/>
  <polygon class="fil5" points="1920.25,2101.62 2147.36,2101.62 2147.36,2085.48 1920.25,2085.48 "/>
  <polygon class="fil8" points="1785.2,1639.87 1805.84,1639.87 1805.84,1619.22 1785.2,1619.22 "/>
  <path class="fil8" d="M1805.85 1745.14l-20.64 0 0 -42.1 20.64 0 0 42.1zm0 105.26l-20.64 0 0 -42.1 20.64 0 0 42.1zm0 105.28l-20.64 0 0 -42.11 20.64 0 0 42.11zm0 105.26l-20.64 0 0 -42.11 20.64 0 0 42.11zm0 105.27l-20.64 0 0 -42.1 20.64 0 0 42.1zm0 105.28l-20.64 0 0 -42.1 20.64 0 0 42.1zm0 105.26l-20.64 0 0 -42.1 20.64 0 0 42.1z"/>
  <polygon class="fil8" points="1785.2,2460.57 1805.84,2460.57 1805.84,2439.91 1785.2,2439.91 "/>
  <polygon class="fil7" points="3316.33,1795.69 4432.02,1795.69 4432.02,1107.99 3316.33,1107.99 "/>
  <polygon class="fil8" points="3749.65,1384.58 3616.9,1441.25 3749.65,1497.07 3732.28,1537.17 3573.08,1466.06 3573.08,1416.85 3732.28,1345.3 "/>
  <polygon class="fil8" points="3945.28,1253.51 3848.93,1623.59 3803.03,1612.85 3899.79,1243.18 "/>
  <polygon class="fil8" points="4175.64,1416.85 4175.64,1466.06 4016.44,1537.17 3999.08,1497.07 4131.4,1441.25 3999.08,1384.58 4016.44,1345.3 "/>
  <polygon class="fil5" points="4393.72,2893 5029.18,2893 5029.18,2440.28 4393.72,2440.28 "/>
  <path class="fil9" d="M4659.53 2538.01c-20.43,0 -27.26,5.52 -27.26,20.76l0 68.14c0,26.61 -11.03,34.72 -29.53,39.92 18.5,4.86 29.53,12.97 29.53,39.25l0 68.14c0,15.25 7.15,20.76 27.26,20.76l0 29.86c-51.6,0 -66.2,-16.56 -66.2,-50.94l0 -64.57c0,-18.5 -4.86,-25.64 -21.74,-25.64l0 -34.07c16.87,0 21.74,-7.46 21.74,-25.96l0 -64.57c0,-34.71 14.6,-50.93 66.2,-50.93l0 29.85z"/>
  <path class="fil9" d="M4829.56 2559.09l0 64.57c0,18.5 4.86,25.96 22.06,25.96l0 34.07c-17.2,0 -22.06,7.14 -22.06,25.64l0 64.57c0,34.39 -14.6,50.94 -66.18,50.94l0 -29.86c20.11,0 27.25,-5.51 27.25,-20.76l0 -68.14c0,-26.28 11.03,-34.39 29.53,-39.25 -18.5,-5.19 -29.53,-13.3 -29.53,-39.92l0 -68.14c0,-15.25 -6.8,-20.76 -27.25,-20.76l0 -29.85c51.58,0 66.18,16.22 66.18,50.93z"/>
  <polygon class="fil6" points="1238.65,1683.44 1951.57,1683.44 1951.57,1206.61 1238.65,1206.61 "/>
  <path class="fil8" d="M1624.78 1474.75c-32.26,32.25 -84.75,32.25 -117.01,-0.01 -32.27,-32.26 -32.27,-84.74 0,-117 32.26,-32.26 84.75,-32.26 117.01,0 32.26,32.26 32.26,84.75 0,117.01zm-150.18 -131.26c-34.04,42.61 -33.51,104.85 1.17,146.93 39.4,47.81 106.9,55.52 155.4,23.18l74.83 74.82c3.15,3.15 8.26,3.15 11.43,0l21.01 -21.03c3.17,-3.15 3.17,-8.28 0,-11.43l-74.82 -74.82c30.31,-45.44 25.44,-107.58 -14.61,-147.64 -48.75,-48.75 -130.14,-45.42 -174.42,9.98z"/>
  <path class="fil10" d="M4025.35 2679.47c-1.54,15.75 -23.07,180.19 -192.17,180.19 -177.51,0 -147.78,-175.76 -147.78,-175.76l-0.22 -1.1c17.31,-3.56 35.94,-4.89 55.7,-2.67l0 -83.21 201.5 -112.74 7.32 0 0 194.17c0,0 31.94,-3.78 75.65,1.11z"/>
  <path class="fil11" d="M3927.48 2112.74c28.58,28.97 50.18,66.46 60.57,112.28 19.36,85.36 1.15,175.68 -23.63,257.94 -4.22,14.08 -9.04,28.28 -17.74,40.13 -6.19,8.44 -14.18,15.4 -22.1,22.29 -35.83,31.21 -71.67,62.43 -107.42,93.74 -24.25,21.21 -173.46,38.89 -201.94,18.54 -109.73,-78.47 -130.86,-305.8 -108.9,-422.04 36.44,-192.81 284.26,-261.74 421.15,-122.87z"/>
  <path class="fil12" d="M3865.86 2359.47c1.46,-18.56 20.54,-38.88 39.7,-26.83 19.83,12.47 15.17,45.43 6.94,63.56 -6.44,14.24 -27.99,29.81 -42.6,16.58 -12.22,-11.1 6.78,-24.17 7.4,-34.29 0.57,-9.11 -17.65,-15.64 -10.19,-25.39l-1.25 6.38z"/>
  <path class="fil12" d="M3869.37 2445.29c20,6 53.89,-9.25 62.46,-37.11 8.57,-27.86 7.65,-59.67 7.65,-59.67 0,0 10.07,25.22 4.89,65.81 -5.18,40.57 -19.39,79.22 -51.24,79.74 -31.85,0.5 -23.76,-48.76 -23.76,-48.76z"/>
  <path class="fil13" d="M3844.83 2416.41l-2.24 0.67c-12.39,1.74 -17.33,-13.25 -19.17,-22.63 -4.29,-21.9 -3.63,-44.07 -4.37,-66.22 -0.18,-5.56 0.25,-12.49 -2.03,-17.71 -6.96,-15.93 -25.5,-26.28 -31.15,-42.74 -6.58,-19.14 12,-38.24 4.63,-59.18 -11.28,-32.1 -52.5,-39.47 -82.31,-39.13 -44.72,0.53 -88.33,8.82 -132.47,15.67 -46.6,7.24 -106.15,14.1 -147.21,-15.37 -49.5,-35.51 -70.17,-128.08 -33.24,-178.75 20.13,-27.64 58.31,-42.35 91.75,-43.11 35.46,-0.82 65.41,20.32 97.94,30.96 25.91,8.47 50.96,-16.31 75.17,-21.14 30.44,-6.09 43.36,27.14 70.29,28.04 26.15,0.89 51.8,-19.54 77.24,-24.18 50.71,-9.26 47.72,41.67 81.74,59.06 21.15,10.82 48.46,4.26 69.85,15.25 16.25,8.35 18.53,23.01 22.07,39.63 3.07,14.37 3.24,30.96 7.97,44.61 4.25,12.28 14.56,20.03 22.59,29.63 8.78,10.48 14.39,22.71 18.83,35.85 9.87,29.14 12.07,60.57 9.37,91.07 -4.51,51.2 -21,101.6 -38.09,149.82 -11.1,31.28 -15.22,63.86 -32.3,93.47 -4.58,7.96 -24.94,31.2 -32.51,13.89 -1.63,-3.71 -1.37,-7.93 -1.1,-11.97 2.26,-32.26 32.29,-240.09 -46.44,-215.14 -16.53,5.25 -27.61,19 -33.78,34.68 -7.36,18.78 -7.87,37.68 -6.94,57.51 0.14,2.83 0.21,5.68 0.1,8.52 -0.14,3.67 -1.06,7.39 -4.2,8.96z"/>
  <path class="fil12" d="M3740.87 2661.09c89.53,-14.39 148.59,-85.11 148.59,-85.11 0,0 -24.14,119.18 -153.97,125.49l5.37 -40.38z"/>
  <path class="fil14" d="M3887.83 4285.69l128.14 0 0 1229.53c0,12.46 -10.11,22.58 -22.58,22.58l-82.97 0c-12.48,0 -22.58,-10.13 -22.58,-22.58l0 -1229.53z"/>
  <path class="fil15" d="M3599.53 4303.28l704.75 0 0 19.24c0,48.43 -39.26,87.7 -87.69,87.7l-529.36 0c-48.43,0 -87.69,-39.27 -87.69,-87.7l0 -19.24z"/>
  <path class="fil14" d="M3887.83 5392.03l128.14 0 0 284.9c0,12.47 -10.11,22.58 -22.58,22.58l-82.97 0c-12.48,0 -22.58,-10.11 -22.58,-22.58l0 -284.9z"/>
  <path class="fil14" d="M3286.9 5624.51c0,41.42 33.58,75 75.01,75 41.41,0 74.99,-33.58 74.99,-75 0,-41.43 -33.58,-75 -74.99,-75 -41.43,0 -75.01,33.57 -75.01,75z"/>
  <path class="fil14" d="M4466.89 5624.51c0,41.42 33.58,75 75.02,75 41.42,0 75,-33.58 75,-75 0,-41.43 -33.58,-75 -75,-75 -41.43,0 -75.02,33.57 -75.02,75z"/>
  <polygon class="fil15" points="3823,5521.8 4080.8,5521.8 4080.8,5296.53 3823,5296.53 "/>
  <path class="fil6" d="M3286.9 5574.82l1330 0 0 -26.14c0,-44.12 -35.76,-79.87 -79.89,-79.87l-1170.24 0c-44.11,0 -79.87,35.75 -79.87,79.87l0 26.14z"/>
  <polygon class="fil15" points="3907.46,5276.41 3951.9,5276.41 3951.9,4435.47 3907.46,4435.47 "/>
  <path class="fil6" d="M4455.36 3394.48c-30.75,-0.97 -55.75,24.49 -53.97,55.19 8.79,152.64 -23.56,525 -165.72,652.04 -173.83,155.35 -666.52,134.18 -666.52,134.18 0,0 -81.37,99.86 81.36,122.04 162.74,22.2 621.33,7.42 732.29,-96.14 107.39,-100.25 171.15,-362.87 123.1,-819.98 -2.75,-26.21 -24.18,-46.52 -50.54,-47.33z"/>
  <polygon class="fil16" points="3532.28,5276.41 3590.86,5410.01 3411.35,5488.79 3352.54,5354.76 "/>
  <path class="fil17" d="M4378.85 3791.65c-11.08,22.21 -808.72,0.44 -884.07,7.32 0,0 -488.18,233.01 -558.31,451.14 -7.11,21.97 -9.09,51.04 -6.87,85.67 19.52,307.11 369.25,1042.5 369.25,1042.5l53.69 -23.51 179.74 -78.35 25.53 -11.08c0,0 -277.39,-826.59 -221.9,-870.97 55.47,-44.39 684.13,-155.33 902.25,-214.36 218.36,-59.26 140.7,-388.35 140.7,-388.35z"/>
  <polygon class="fil18" points="2847.89,5310.79 2861.91,5511.48 2665.96,5511.48 2651.93,5310.35 "/>
  <path class="fil13" d="M3490.79 3792.09l-7.11 3.11c0,0 -817.28,114.73 -950.4,343.96 -86.56,149.11 80.96,1238.74 80.96,1238.74l289.14 0.67c0,0 -43.24,-907.67 -28.82,-958.25 16.21,-57.71 43.94,-78.57 55.04,-84.54 -2.22,-34.63 -0.24,-63.69 6.87,-85.67 70.13,-218.13 558.31,-451.14 558.31,-451.14 -1.54,-1.1 -2.89,-3.54 -3.98,-6.88z"/>
  <path class="fil7" d="M4280.18 3036.96l-54.8 7.54c0,0 -13.32,147.79 -45.94,295.58l-682.79 259.18 -9.33 49.48c-2.87,-0.22 -5.76,-0.44 -8.43,-0.67 0.22,10.21 0.22,20.19 0.67,29.51 1.56,57.04 5.32,98.08 11.32,114.5 1.11,3.33 2.44,5.78 4,6.88 18.54,15.12 260.04,-14.18 521.11,81.68 226.43,83.15 353.35,173.96 359.21,161.76 71.17,-147.94 -58.39,-728.51 -95,-1005.46z"/>
  <path class="fil19" d="M4208.94 3375.58c-18.19,87.43 -65.24,261.4 -157.56,284.71 -120.5,30.62 -353.48,29.07 -571.85,17.3 -0.44,-9.32 -0.44,-19.3 -0.67,-29.51 2.67,0.22 5.56,0.44 8.43,0.67l9.33 -49.48 682.79 -259.18c32.63,-147.79 45.94,-295.58 45.94,-295.58 0,0 0,0.89 0.21,2.44 1.33,22.86 10.65,199.5 -16.64,328.64z"/>
  <path class="fil19" d="M3524.53 2818.83c-12.21,22.18 -29.75,259.63 -39.28,495.29l-139.58 -130.26c59.24,-114.72 178.86,-365.03 178.86,-365.03z"/>
  <path class="fil12" d="M3440.86 3486.32c-117.83,20.4 -226.13,37.94 -226.13,37.94l-0.22 5.76c-131.14,-104.74 -330.64,-401.42 -330.64,-401.42 0,0 59.69,-71.68 74.57,-90.54 2.21,-2.89 327.53,221.02 344.17,219.02 4.22,-0.43 20.86,-29.72 43.06,-73.22l139.58 130.26c-2.24,56.14 -4.02,112.06 -5.13,165.09 -13.08,2.44 -26.17,4.67 -39.26,7.11z"/>
  <path class="fil20" d="M3214.73 3524.26l-2.89 97.19 -355.06 0c0,0 35.29,-138.69 131.37,-138.69 96.08,0 133.14,50.82 133.14,50.82l93.43 -9.32z"/>
  <path class="fil21" d="M2955.76 3035.85l2.68 2.22c-14.87,18.86 -74.57,90.54 -74.57,90.54l-37.06 -26.18c0,0 -40.83,24.85 -88.32,-1.13 -49.49,-26.85 -18.86,-90.96 -16.32,-98.56 -9.59,2.71 -68.89,50.63 -78.21,45.53 -9.32,-5.11 -16.19,-21.97 50.14,-87.43 66.14,-65.46 156.22,18.64 158.89,18.64l82.76 56.36z"/>
  <path class="fil22" d="M2766.22 3090.18c0,0 -14.31,26.78 11.13,38.43 25.43,11.64 74.9,20.04 96.17,18 21.25,-2.06 38.15,-31.79 38.15,-31.79l-64.37 -60.41 -51.46 0 -29.61 35.76z"/>
  <path class="fil23" d="M2762.41 3103.33c3.81,-13.15 40.36,-6.14 63.02,-5.59 16.69,0.39 25.83,-3.99 30.98,-16.71 5.17,-12.71 -19.07,-32.97 -23.83,-26.61 -4.76,6.35 8.74,15.31 9.14,23.74 0.4,8.44 -23.83,11.24 -42.52,11.24 -18.68,0 -50.9,4.86 -50.9,4.86l14.11 9.08z"/>
  <path class="fil24" d="M4144.73 3466.12l-347.72 -123.17c-25.31,47.28 -52.37,82.78 -79.21,89.89 -40.61,10.64 -138.71,29.06 -237.68,46.36 -13.08,2.44 -26.17,4.67 -39.26,7.11 -117.83,20.4 -226.13,37.94 -226.13,37.94l-0.22 5.76 0 3.78 -2.67 87.65 0 22.25c0,0 118.06,-6.06 266.96,4.37 208.37,14.86 477.1,23.75 566.07,-18.18 41.72,-19.76 75.01,-84.56 101.21,-164.44l-1.35 0.67z"/>
  <polygon class="fil12" points="3797.01,3342.96 4144.73,3466.12 4129,3512.58 3784.85,3364.96 "/>
  <path class="fil7" d="M3797.01 3342.96c-25.31,47.28 -52.37,82.78 -79.21,89.89 -40.61,10.64 -138.71,29.06 -237.68,46.36 1.11,-53.03 2.89,-108.94 5.11,-165.09 9.54,-235.67 27.09,-473.11 39.3,-495.29 19.96,-37.07 74.56,-117.61 160.65,-136.03l0.22 1.1c0,0 -29.74,175.76 147.78,175.76 169.1,0 190.63,-164.44 192.17,-180.19 87,9.76 220.36,53.25 238.78,228.11 3.78,34.63 9.1,79 15.97,129.37l-54.8 7.54c0,0 -22.2,246.32 -79.21,420.96l-1.35 0.67 -347.72 -123.17z"/>
  <polygon class="fil25" points="3829.98,3324.5 3793.41,3310.91 3932.26,2974.8 "/>
  <path class="fil7" d="M4025.35 2679.47l-75.65 0c0,0 -107.69,118.24 -176.9,118.24 -69.24,0 -31.92,-117.57 -31.92,-117.57l-33.78 0c-97,0 -178.64,72.85 -189.63,169.24 -1.25,11.04 -2.4,21.51 -3.37,30.98 -7.42,71.53 282.35,123.58 282.35,123.58l149.2 -8.35 90.59 -176.76 18.06 -72.39 -28.94 -66.97z"/>
  <path class="fil9" d="M3112.26 5642.56c6.73,36.14 31.8,61.84 67.96,55.09l481.96 -89.89c12.2,-2.28 20.22,-14 17.96,-26.2l-7.97 -42.76c0,0 -506.9,88.71 -560.15,103.48l0.25 0.28z"/>
  <path class="fil13" d="M3255.65 5521.19c5.03,-4.36 9.86,-8.69 14.89,-13.04 9.67,-8.65 19.18,-17.08 28.35,-25.24 4.82,-4.32 9.67,-8.65 14.14,-12.72 8.8,-7.87 17.09,-15.26 24.53,-21.9 5.33,-4.81 10.33,-9.36 14.82,-13.43 8.24,-7.39 14.96,-13.4 19.68,-17.64 4.08,-3.65 10.15,-3.82 14.33,-0.29 19.82,16.65 83.85,54.74 199.85,-17.03 5.49,-3.4 12.8,-1.63 15.78,4.11l70.15 134.79c0,0 -506.9,88.71 -560.15,103.48 17.52,-10.92 82.21,-66.91 143.64,-121.09z"/>
  <path class="fil9" d="M2353.22 5637.82c0.89,36.76 21.53,66.14 58.31,65.22l490.12 -11.96c12.41,-0.3 22.21,-10.59 21.91,-22.98l-1.07 -43.49c0,0 -514.54,6.81 -569.46,12.91l0.19 0.3z"/>
  <path class="fil13" d="M2514.11 5540.86c5.67,-3.51 11.11,-7 16.78,-10.5 10.93,-7.01 21.65,-13.82 31.99,-20.4 5.47,-3.5 10.93,-7 16.01,-10.29 9.94,-6.39 19.29,-12.36 27.7,-17.72 6.04,-3.91 11.69,-7.62 16.76,-10.9 9.3,-5.98 16.92,-10.86 22.24,-14.28 4.61,-2.96 10.64,-2.17 14.22,1.98 16.9,19.6 74.06,67.4 199.99,15.03 5.97,-2.47 12.89,0.44 14.91,6.58l47.78 144.25c0,0 -514.54,6.81 -569.46,12.91 19.01,-8 91.8,-52.96 161.08,-96.66z"/>
  <polygon class="fil26" points="2004.57,3643.71 1742.8,2945.59 2488.01,2945.59 2749.75,3643.71 "/>
  <polygon class="fil27" points="2795.83,3643.71 2749.75,3643.71 2488.01,2945.59 2529.83,2947.46 2771.94,3579.35 "/>
  <path class="fil27" d="M2781.37 3643.71l492.4 0 -1.35 -44.02c0,0 -492.92,0 -501.14,0l10.08 44.02z"/>
  <polygon class="fil27" points="4760.64,5724.53 4879.19,5724.53 4879.19,3776.85 4760.64,3776.85 "/>
  <polygon class="fil26" points="4117.11,5724.53 4235.67,5724.53 4235.67,3776.85 4117.11,3776.85 "/>
  <polygon class="fil27" points="2055.46,5724.53 2174,5724.53 2174,3776.85 2055.46,3776.85 "/>
  <polygon class="fil26" points="1411.94,5724.53 1530.5,5724.53 1530.5,3776.85 1411.94,3776.85 "/>
  <path class="fil28" d="M4997.83 3784.24l-3699.46 0c-31.83,0 -57.62,-25.81 -57.62,-57.63l0 -25.29c0,-31.82 25.8,-57.61 57.62,-57.61l3699.46 0c31.82,0 57.61,25.79 57.61,57.61l0 25.29c0,31.82 -25.79,57.63 -57.61,57.63z"/>
  <polygon class="fil27" points="1867.23,3018.97 1879.98,3052.96 2028.43,3052.96 2015.68,3018.97 "/>
  <polygon class="fil23" points="3345.67,3183.86 3335,3204.44 3485.25,3359.71 3485.25,3314.12 "/>
  <polygon class="fil29" points="413.11,5836.47 6411.95,5836.47 6411.95,5699.48 413.11,5699.48 "/>
  <path class="fil30" d="M5460.87 4683.54c-23.82,115.63 -16.65,312.58 -169.61,343.78 -41.2,8.39 -80.99,-20.15 -104.93,-52.88 -31.33,-42.82 -38.83,-133.44 -38.29,-185.29 0.43,-41.08 14.44,-86.89 18.94,-128.35 4.89,-44.76 8.85,-89.63 14.07,-134.36 18.82,-161.22 103.04,-296.35 245.5,-376.83 11.03,52.93 36.15,97.72 58.32,148.54 10.11,23.17 19.22,47.6 25.8,71.88 11.64,42.98 -2.44,86.43 -12.9,127.61 -15.46,60.87 -24.21,124.32 -36.9,185.9z"/>
  <path class="fil31" d="M5265.36 5031.21c1.1,-9.7 2.29,-19.39 3.57,-29.09 18.28,-0.06 37.3,-10.44 52.64,-18.39 26.61,-13.8 48.2,-33.57 69.1,-54.71l-1.96 -1.96c-20.85,17.52 -42.46,34.47 -67.26,46.04 -13.85,6.44 -34.07,16.98 -51.12,19.04 1.61,-11.58 3.39,-23.12 5.3,-34.67 19.03,-2.33 36.47,-14.83 52.58,-24.39 27.39,-16.25 50.94,-37.28 75.36,-57.54l-0.35 -0.43c-37.35,27.13 -78.96,65.74 -126.22,74.2 2.51,-14.44 5.15,-28.86 8.19,-43.17l0.47 -2.24c54.69,-13.83 91.68,-56.72 133.56,-91.39l-0.76 -1.17c-41.24,32.03 -79.99,68.56 -130.96,84.11 4.43,-20.49 9.03,-40.91 13.65,-61.28 49.47,-18.26 88.99,-47.25 123.57,-87.63l-1 -0.97c-35.79,37.25 -75.21,58.64 -120.6,79.85 4.57,-20.18 9.11,-40.37 13.42,-60.62 21.4,-10.52 43.92,-16.92 63.68,-30.76 19.5,-13.65 37,-29.93 49.56,-50.25l-1.65 -1.06c-27.68,39.81 -69.42,52.2 -109.75,73.13 3.93,-18.87 7.59,-37.79 10.87,-56.82 44.94,-24.75 93.79,-47.7 119.26,-95.13l-0.69 -0.47c-26.99,43.58 -74.15,62.35 -116.97,86.07 0.56,-3.39 1.18,-6.75 1.71,-10.15 2.76,-17.64 5.33,-35.32 7.87,-52.97 25.82,-10.36 50.44,-24.96 73.68,-40.1 16.5,-10.75 34.11,-21.39 44.92,-38.25l-1.6 -1.13c-24.11,34.54 -76.92,54.51 -115.9,71.79 2.53,-17.85 5.04,-35.69 7.58,-53.56 43.26,-26.18 94.18,-40.65 120.8,-87.86 0.79,-1.39 -1.26,-2.68 -2.14,-1.32 -27.58,43.1 -76.13,56.39 -117.47,80.85 1.58,-11.06 3.2,-22.11 4.86,-33.15 46.74,-17.18 101.07,-56.3 125.71,-98.54 1.36,-2.33 -2,-4.49 -3.53,-2.26 -25.13,37.07 -75.63,77.36 -120.81,92.03 2.76,-17.9 5.65,-35.78 8.85,-53.63l0.68 -1.57c20.99,-6.18 41.72,-20.97 59.83,-32.15 21.83,-13.47 42.67,-29.11 56.26,-51.26 1.5,-2.44 -2.49,-4.71 -3.89,-2.2 -20.76,37.04 -70.01,61.88 -110.79,76.02 1.19,-6.52 2.37,-13.02 3.67,-19.52 1.92,-9.71 3.91,-19.43 5.88,-29.14 16.7,-11.53 37.9,-17.04 54.67,-29.22 14.57,-10.59 27.29,-23.33 39.78,-36.26 1.25,-1.26 -0.59,-3.25 -1.9,-2.02 -16.92,15.89 -34.32,31.15 -54.92,42.17 -11.51,6.17 -24.64,9.68 -35.79,16.44 3.26,-15.87 6.52,-31.75 9.63,-47.65l0.6 -0.12 0.59 0.12 2.74 -0.86c22.71,-5.72 40.07,-25.26 55.32,-41.92l-0.58 -0.6c-16.01,14.79 -34.21,31.18 -55.65,37.54l-0.21 -0.1 -1.63 -0.25c2.47,-12.94 4.83,-25.91 7,-38.89 1.64,-0.29 3.07,-1.7 2.68,-3.33 12.04,-8.07 22.97,-18.37 33.24,-28.44l-1.14 -1.24c-10.67,9.2 -21.19,16.78 -33.19,23.42 4.24,-26.82 7.53,-53.81 9.03,-81.04 0.14,-2.53 -3.68,-2.56 -3.9,-0.07 -2.37,26.22 -6.18,52.19 -10.71,78.04 -12.52,-16.43 -26.46,-33.35 -34.11,-52.15l-1.6 0.47c3.75,11.68 10.21,21.89 16.6,32.28 5.72,9.29 10.29,20.11 17.58,28.36 -2.53,13.87 -5.25,27.71 -8.11,41.54 -15.22,-2.44 -29.18,-5.33 -41.75,-16.36 -15.39,-13.49 -24.14,-31.83 -25.65,-52.18 -0.19,-2.5 -4.14,-2.49 -3.92,0.01 1.74,18.92 9.26,36.71 22.21,50.82 13.61,14.83 29.6,19.57 47.93,23.37 -3.33,15.96 -6.78,31.9 -10.29,47.83 -13.82,-8.29 -26.67,-19.12 -39.13,-29.07 -20.13,-16.03 -32,-35.32 -49.46,-53.37 -1.75,-1.8 -4.59,0.8 -2.87,2.65 16.36,17.39 27.43,36.22 46.03,51.85 13.41,11.25 28.2,25.36 44.18,33.68l-0.56 2.53 -0.53 0.44 -0.36 3.57c-3.36,15.25 -6.71,30.52 -9.93,45.82l-0.57 2.87c-35.58,-16.29 -88.75,-44.59 -93.47,-85.87 -0.44,-3.92 -6.3,-2.83 -5.39,1.18 10.51,46.72 61.86,67.43 97.23,92.9 -3.48,17.29 -6.69,34.63 -9.62,52.02 -22.99,-7.92 -44.83,-17.7 -64.13,-33.03 -17.56,-13.96 -42.37,-30.79 -50.28,-52.42l-1.01 0.44c7.31,21.48 29.58,36.26 45.79,50.93 20.56,18.6 41.6,34.39 68.04,41.83l-0.07 2.32c-1.82,11.03 -3.57,22.06 -5.25,33.11 -43.2,-3.32 -103.68,-36.14 -125.76,-68.82l-0.21 0.17c15.06,24.94 37.82,39.52 63.5,52.15 19.17,9.46 39.89,20.64 61.59,22.25 -3.1,20.44 -6.11,40.9 -9.15,61.36 -18.75,-6.98 -38.61,-10.33 -57.17,-17.75 -27.57,-11.04 -48.64,-30.87 -64.88,-55.25 -0.97,-1.47 -3.43,-0.22 -2.46,1.31 29.92,47.56 72.96,61.52 123.36,79.32 -2.52,16.78 -5.15,33.54 -7.92,50.29 -41.26,-7.9 -94.61,-33.09 -115.49,-68.93 -1.54,-2.63 -5.72,-0.44 -4.19,2.21 13.18,22.97 35.9,37.48 59.08,49.19 16.69,8.43 39.68,22.41 59.57,23.91l-0.28 1.64c-4.08,24.1 -8.83,48.08 -13.97,71.97 -46.1,-11.58 -75.89,-45.72 -109.39,-77.68 -2.32,-2.22 -5.97,1.17 -3.65,3.43 34.12,33.6 64.09,68.83 111.51,81.26 -4.25,19.43 -8.78,38.83 -13.47,58.17 -39.25,-10.97 -78.11,-38.83 -103.5,-70.83 -1.8,-2.28 -4.96,0.81 -3.25,3.06 26.39,34.72 64.44,60.93 104.94,75.28 -5.1,20.76 -10.38,41.47 -15.7,62.18 -40.33,-6.14 -71.4,-31.39 -96.24,-63.3l-1.33 1c22.07,30.71 55.44,66.17 95.61,69.89 -1.71,6.59 -3.41,13.21 -5.11,19.8 -1.03,3.97 -2.1,8.02 -3.21,12.1 -30.41,-8.94 -58.63,-19.86 -83.72,-40.36l-0.85 1.11c23.85,21.47 52.4,35.94 82.92,45.33 -3.39,12.43 -6.96,25.21 -10.5,38.24 -7.54,-3.51 -14.83,-7.36 -23.08,-9.83 -15.13,-4.53 -24.92,-14.12 -38.09,-22.03l-1.36 1.76c11.57,7.54 19.68,17.25 32.87,22.21 9.76,3.7 18.97,8.38 28.42,12.57 -13.86,51.67 -26.13,106.58 -19.49,156.17 1.49,11 19.93,13.92 22.79,2.21 8.75,-35.94 8.31,-74.35 12.39,-111.09z"/>
  <path class="fil32" d="M4976.78 4650.43c27.21,114.89 116.83,290.4 -8.67,383.26 -33.79,25 -81.92,15.89 -117.44,-3.67 -46.47,-25.59 -91.53,-104.59 -112.9,-151.82 -16.96,-37.43 -23.59,-84.88 -36.99,-124.35 -14.48,-42.64 -29.82,-84.98 -43.97,-127.74 -50.98,-154.11 -31.65,-312.15 63.53,-445.25 32.32,43.33 74.03,73.33 115.57,110.04 18.92,16.74 37.5,35.06 53.71,54.28 28.71,34.07 34.28,79.39 42.17,121.14 11.68,61.72 30.53,122.93 45,184.1z"/>
  <path class="fil33" d="M4946.29 5048.15c-3.13,-9.25 -6.13,-18.56 -9.07,-27.89 16.57,-7.75 29.43,-25.2 39.97,-38.89 18.32,-23.74 29.51,-50.75 39.56,-78.76 0.53,-1.49 -1.94,-2.35 -2.6,-0.93 -11.51,24.67 -23.94,49.17 -41.57,70.14 -9.82,11.68 -23.71,29.75 -38.29,38.82 -3.44,-11.18 -6.7,-22.4 -9.82,-33.65 16.25,-10.15 26.8,-28.83 37.36,-44.32 17.97,-26.29 30.46,-55.29 44.04,-83.96l-0.49 -0.25c-22.43,40.35 -43.86,92.92 -83.12,120.53 -3.82,-14.15 -7.5,-28.33 -10.8,-42.58l-0.5 -2.24c43.72,-35.61 59.17,-90.11 82.49,-139.21l-1.19 -0.74c-23.85,46.43 -43.54,95.92 -83.21,131.52 -4.64,-20.43 -9.09,-40.88 -13.5,-61.31 37.17,-37.44 60.75,-80.4 75.06,-131.6l-1.32 -0.46c-16.72,48.87 -43.43,84.9 -75.63,123.29 -4.37,-20.24 -8.78,-40.44 -13.43,-60.63 14.97,-18.57 32.67,-33.87 44.77,-54.76 11.91,-20.6 20.9,-42.75 23.7,-66.47l-1.93 -0.26c-8.31,47.78 -40.9,76.61 -68.64,112.61 -4.42,-18.76 -9.08,-37.46 -14.13,-56.09 30.31,-41.42 64.9,-82.82 67.97,-136.57l-0.83 -0.13c-6.07,50.89 -40.9,87.81 -69.71,127.39 -0.93,-3.31 -1.78,-6.63 -2.74,-9.93 -4.94,-17.15 -10.07,-34.26 -15.25,-51.35 19.07,-20.3 35.22,-43.91 49.9,-67.44 10.42,-16.7 21.89,-33.79 24.57,-53.64l-1.93 -0.33c-7.27,41.48 -46.71,81.86 -74.78,114 -5.24,-17.26 -10.49,-34.5 -15.71,-51.75 28.17,-42 68.21,-76.63 72.43,-130.64 0.13,-1.61 -2.28,-1.9 -2.48,-0.31 -6.82,50.72 -45.22,83.25 -72.39,122.89 -3.24,-10.71 -6.43,-21.4 -9.58,-32.13 35.11,-35.29 67.86,-93.69 72.36,-142.39 0.26,-2.68 -3.71,-3.22 -4.14,-0.56 -7.14,44.21 -35.91,102.03 -70.67,134.41 -5.07,-17.39 -9.98,-34.82 -14.63,-52.32l-0.04 -1.74c16.42,-14.44 28.97,-36.63 40.68,-54.39 14.09,-21.43 26.39,-44.43 29.36,-70.22 0.32,-2.86 -4.24,-3.24 -4.44,-0.36 -3.19,42.35 -37.37,85.65 -68.37,115.68 -1.65,-6.41 -3.35,-12.81 -4.92,-19.24 -2.35,-9.63 -4.65,-19.26 -6.94,-28.91 10.27,-17.5 27.15,-31.44 37.21,-49.57 8.75,-15.74 14.91,-32.67 20.76,-49.65 0.59,-1.68 -1.91,-2.71 -2.59,-1.03 -8.63,21.57 -17.96,42.72 -31.96,61.4 -7.85,10.46 -18.26,19.18 -25.51,30.02 -3.75,-15.78 -7.5,-31.53 -11.41,-47.25l0.5 -0.37 0.59 -0.14 2.12 -1.93c18.17,-14.78 25.67,-39.82 32.46,-61.36l-0.78 -0.3c-8.28,20.18 -17.85,42.71 -34.59,57.52l-0.25 0.01 -1.58 0.46c-3.19,-12.78 -6.54,-25.53 -10.04,-38.21 1.35,-0.96 2.06,-2.83 1.02,-4.17 7.5,-12.39 13.07,-26.33 18.11,-39.81l-1.54 -0.65c-5.79,12.85 -12.14,24.17 -20.2,35.26 -7.49,-26.09 -15.89,-51.96 -26.03,-77.29 -0.93,-2.35 -4.41,-0.76 -3.57,1.58 8.92,24.78 16.43,49.93 23.25,75.26 -18.29,-9.59 -38.07,-19.06 -52.94,-32.87l-1.25 1.1c8.31,9.01 18.48,15.54 28.67,22.26 9.1,6.01 17.82,13.89 27.91,18.29 3.58,13.64 6.94,27.35 10.18,41.07 -14.82,4.2 -28.69,7.48 -44.75,2.79 -19.64,-5.74 -35.32,-18.67 -45.28,-36.47 -1.24,-2.18 -4.8,-0.52 -3.54,1.65 9.56,16.43 23.9,29.4 41.58,36.72 18.61,7.71 35.1,5.25 53.32,0.94 3.71,15.89 7.31,31.78 10.86,47.71 -16.04,-1.67 -32.26,-6.08 -47.75,-9.82 -25,-6.06 -43.9,-18.53 -67.36,-27.53 -2.35,-0.89 -3.83,2.68 -1.49,3.61 22.17,8.87 40.14,21.26 63.63,27.59 16.9,4.53 36.25,11.07 54.25,11.88l0.56 2.53 -0.28 0.64c-0.61,1.6 0.08,2.78 1.18,3.37 3.39,15.24 6.79,30.5 10.33,45.72l0.68 2.85c-39.12,0.25 -99.26,-2.96 -120.96,-38.4 -2.07,-3.36 -6.92,0.09 -4.4,3.36 29.26,37.91 84.54,35 127.35,43.17 4.15,17.15 8.56,34.22 13.24,51.22 -24.17,2.53 -48.11,2.89 -72.07,-2.89 -21.8,-5.24 -51.4,-10.01 -67.69,-26.28l-0.75 0.82c15.71,16.4 42.13,20.39 63,26.85 26.5,8.2 52.25,13.63 79.36,9.21l0.92 2.14c3.01,10.76 6.08,21.5 9.21,32.24 -40.57,15.21 -109.24,10.99 -143.04,-9.32l-0.13 0.24c24.17,16.25 50.97,19.86 79.57,20.5 21.37,0.47 44.87,1.86 65.24,-5.83 5.81,19.85 11.72,39.65 17.58,59.49 -19.93,1.58 -39.36,6.93 -59.3,8.03 -29.67,1.63 -57.13,-7.46 -82.13,-22.71 -1.52,-0.92 -3.22,1.24 -1.7,2.24 47.2,30.49 92.09,24.96 145.31,19.83 4.81,16.28 9.52,32.58 14.06,48.93 -40.74,10.25 -99.74,9.94 -133.79,-13.75 -2.5,-1.74 -5.36,2.03 -2.87,3.79 21.67,15.25 48.39,18.82 74.33,19.65 18.69,0.6 45.43,3.57 64.08,-3.47l0.46 1.59c6.47,23.57 12.28,47.32 17.69,71.15 -46.68,8.96 -88.09,-9.42 -131.94,-24.26 -3.06,-1.03 -4.93,3.58 -1.86,4.67 45.11,16.04 87.15,35.35 135.39,26.59 4.36,19.43 8.44,38.91 12.35,58.43 -40.22,6.61 -87.21,-2.24 -123.72,-20.53 -2.59,-1.31 -4.17,2.83 -1.67,4.15 38.58,20.32 84.13,28.03 126.9,23.94 4.15,20.97 8.11,41.98 12.02,62.98 -39.15,11.46 -77.97,1.68 -113.96,-16.76l-0.76 1.47c32.96,18.51 78.18,36.57 116.15,22.98 1.25,6.71 2.49,13.42 3.72,20.13 0.75,4.04 1.48,8.17 2.21,12.32 -31.35,4.72 -61.54,6.74 -92.94,-1.25l-0.29 1.36c30.68,9.41 62.67,10.47 94.3,6.1 2.17,12.7 4.32,25.81 6.61,39.1 -8.3,0 -16.56,-0.42 -25.07,0.82 -15.63,2.28 -28.56,-2.28 -43.85,-3.89 -1.39,-0.15 -1.91,1.97 -0.47,2.17 13.67,1.97 25.12,7.35 39.19,6.28 10.4,-0.78 20.72,-0.42 31.04,-0.61 9.24,52.68 21.29,107.64 48.26,149.81 5.97,9.33 23.93,4.19 21.57,-7.61 -7.22,-36.29 -23.85,-70.92 -35.62,-105.94z"/>
  <path class="fil34" d="M5241.9 4561.39c6.46,145.97 74.79,380.1 -99.28,463.91 -46.89,22.57 -103.28,0.37 -141.93,-31.63 -50.58,-41.87 -87.07,-148.35 -102.13,-210.71 -11.93,-49.43 -9.01,-108.64 -16.17,-159.74 -7.72,-55.19 -16.57,-110.22 -23.87,-165.48 -26.3,-199.14 33.79,-386.81 180.32,-526.56 29.26,60.15 73.03,106.28 115,160.54 19.15,24.72 37.48,51.28 52.75,78.4 27.02,48.06 23.28,104.46 23.21,157.03 -0.08,77.72 8.65,156.52 12.1,234.24z"/>
  <path class="fil35" d="M5112.73 5037.82c-1.64,-11.97 -3.14,-23.97 -4.56,-35.99 21.93,-5.59 41.61,-23.83 57.61,-38.01 27.75,-24.63 47.62,-54.89 66.3,-86.6 0.99,-1.69 -1.82,-3.31 -2.94,-1.75 -19.71,27.33 -40.5,54.24 -66.76,75.64 -14.64,11.93 -35.71,30.69 -55.56,38.32 -1.58,-14.37 -2.96,-28.76 -4.14,-43.18 22.11,-8.56 39.25,-28.85 55.68,-45.21 27.93,-27.8 49.83,-60.18 72.97,-91.87l-0.54 -0.43c-36.6,43.87 -74.82,102.82 -128.93,127.29 -1.39,-18.09 -2.57,-36.18 -3.26,-54.28l-0.1 -2.83c61.42,-33.17 92.78,-95.85 132.52,-150.12l-1.28 -1.17c-39.76,50.92 -75.17,106.52 -131.61,140.61 -0.91,-25.92 -1.58,-51.81 -2.21,-77.67 53.83,-36.89 92.44,-83.67 121.69,-142.59l-1.48 -0.86c-31.65,55.56 -72.46,93.17 -120.49,132.36 -0.62,-25.61 -1.3,-51.2 -2.28,-76.78 22.48,-19.13 47.54,-33.64 67.08,-56.24 19.25,-22.29 35.32,-47.14 44.21,-75.32 0.48,-1.47 -1.75,-2.21 -2.29,-0.76 -21.14,56.14 -67.47,83.67 -109.52,121 -1.01,-23.82 -2.35,-47.64 -4.18,-71.46 46.43,-43.32 98.07,-85.65 114.25,-150.29l-0.97 -0.35c-19.17,60.47 -70.07,97.28 -114.25,138.74 -0.35,-4.24 -0.62,-8.47 -1.03,-12.72 -2.04,-22 -4.3,-43.99 -6.62,-65.96 27.86,-20.25 52.96,-45.22 76.26,-70.43 16.53,-17.89 34.44,-36.02 42.29,-59.52 0.48,-1.48 -1.71,-2.32 -2.26,-0.86 -18.44,48.75 -75.75,88.72 -117.31,121.28 -2.36,-22.19 -4.76,-44.37 -7.13,-66.54 43.97,-44.54 100.67,-77.36 118.31,-142.06 0.51,-1.92 -2.33,-2.85 -2.97,-0.93 -20.02,60.06 -74.24,90.74 -116.44,132.63 -1.44,-13.76 -2.85,-27.52 -4.19,-41.28 50.85,-34.76 104.18,-98.18 120.94,-156.33 0.91,-3.2 -3.78,-4.78 -4.93,-1.64 -18.9,52.1 -67.26,115.72 -117.03,147.03 -2.13,-22.32 -4.07,-44.64 -5.67,-67l0.36 -2.12c23.3,-13.76 43.69,-37.79 62.04,-56.7 22.11,-22.78 42.36,-47.89 51.96,-78.57 1.06,-3.39 -4.42,-4.89 -5.33,-1.46 -13.67,50.74 -65.24,95.46 -109.89,124.81 -0.53,-8.18 -1.1,-16.35 -1.51,-24.54 -0.64,-12.24 -1.21,-24.48 -1.76,-36.74 16.53,-18.9 40.29,-31.94 56.72,-51.64 14.26,-17.11 25.67,-36.26 36.74,-55.56 1.1,-1.92 -1.71,-3.74 -2.92,-1.86 -15.47,24.21 -31.72,47.79 -53.08,67.26 -11.94,10.87 -26.64,19.08 -37.97,30.56 -0.89,-20.03 -1.81,-40.07 -2.9,-60.07l0.67 -0.33 0.76 -0.04c1.46,-0.08 2.43,-0.85 3.03,-1.85 25.5,-13.75 40.42,-42.48 53.67,-67.08l-0.88 -0.53c-14.74,22.61 -31.58,47.76 -55.39,61.9l-0.29 -0.04 -2.04 0.19c-0.93,-16.28 -2.03,-32.54 -3.37,-48.78 1.89,-0.86 3.18,-2.97 2.2,-4.82 12,-13.35 22,-29.01 31.25,-44.2l-1.74 -1.15c-10,14.28 -20.35,26.57 -32.72,38.19 -3.06,-33.48 -7.3,-66.85 -13.75,-100 -0.6,-3.06 -5.18,-1.93 -4.69,1.1 5.09,32.21 8.39,64.51 10.82,96.89 -20,-15.92 -41.86,-31.99 -56.75,-52.24l-1.78 1.04c8.03,12.89 18.89,23.18 29.69,33.71 9.68,9.42 18.46,21.02 29.71,28.71 1.18,17.4 2.1,34.83 2.87,52.28 -19.03,1.68 -36.64,2.46 -55.07,-6.96 -22.54,-11.51 -38.63,-30.87 -46.61,-54.83 -0.98,-2.93 -5.72,-1.72 -4.68,1.2 7.82,22.18 22.25,41.26 42.06,54.25 20.85,13.68 41.44,14.51 64.59,13.51 0.83,20.15 1.53,40.32 2.15,60.5 -19.11,-5.75 -37.8,-14.86 -55.76,-23 -29,-13.14 -49.1,-32.68 -75.53,-49.04 -2.64,-1.64 -5.28,2.36 -2.64,4.04 24.9,15.91 43.87,35.15 70.96,48.25 19.49,9.44 41.5,21.89 63.2,27.03l0.11 3.18 -0.5 0.71c-1.11,1.8 -0.53,3.42 0.65,4.37 0.58,19.33 1.19,38.68 1.97,57.99l0.19 3.62c-47.64,-8.75 -120.02,-26.58 -138.17,-74.68 -1.74,-4.57 -8.44,-1.48 -6.14,3.06 26.79,52.86 94.68,62.12 144.83,81.97 1.06,21.8 2.47,43.59 4.24,65.33 -29.98,-2.51 -59.17,-7.64 -86.96,-20.19 -25.29,-11.42 -60.18,-24.08 -76.22,-47.64l-1.1 0.83c15.31,23.57 46.5,34.54 70.39,47.21 30.32,16.11 60.35,28.68 94.33,29.58l0.63 2.81c1.18,13.79 2.42,27.56 3.72,41.32 -52.83,9.11 -135.33,-11.92 -171.74,-44.44l-0.22 0.26c25.64,25.36 57.37,35.94 92,43.33 25.89,5.53 54.14,12.67 80.65,8.01 2.47,25.47 5.07,50.94 7.62,76.42 -24.62,-2.71 -49.46,-0.71 -73.96,-4 -36.44,-4.87 -67.72,-22.28 -94.61,-46.61 -1.61,-1.46 -4.18,0.76 -2.56,2.32 50.32,47.99 106.17,51.68 172.06,57.76 2.08,20.9 4.01,41.82 5.76,62.75 -51.91,3.03 -123.57,-11.02 -159.47,-47.7 -2.64,-2.68 -7,1.21 -4.38,3.93 22.81,23.56 54.46,34.09 85.82,41.09 22.58,5.07 54.4,14.86 78.71,10.63l0.18 2.06c2.42,30.15 3.97,60.36 5.04,90.6 -58.81,0.07 -104.92,-31.87 -154.79,-60.06 -3.46,-1.96 -6.82,3.21 -3.35,5.25 51.14,29.94 97.78,63.14 158.46,63.67 0.78,24.61 1.24,49.25 1.46,73.89 -50.42,-1.28 -105.5,-22.9 -145.65,-53.61 -2.85,-2.18 -5.71,2.47 -2.97,4.67 42.19,33.64 95.78,53.56 148.74,58.49 0.18,26.47 0.14,52.92 0.01,79.36 -50.25,4.86 -95.18,-16.02 -134.65,-46.76l-1.29 1.59c35.78,30.15 86.59,62.57 135.91,54.86 -0.04,8.43 -0.08,16.87 -0.14,25.32 -0.03,5.08 -0.09,10.26 -0.18,15.49 -39.2,-1.52 -76.38,-6.06 -112.7,-23.04l-0.68 1.58c35.14,18.53 73.79,27.24 113.25,29.26 -0.31,15.93 -0.71,32.36 -1,49.04 -10.11,-1.93 -20.06,-4.33 -30.7,-4.79 -19.53,-0.85 -34.18,-9.39 -52.37,-14.89 -1.67,-0.5 -2.78,1.94 -1.08,2.53 16.15,5.56 28.83,14.74 46.17,16.71 12.85,1.44 25.31,4.28 37.91,6.43 -0.99,66.21 0.97,135.81 23.98,193.29 5.1,12.75 28.11,10.65 28,-4.25 -0.4,-45.78 -12.6,-91.74 -18.81,-137.06z"/>
  <polygon class="fil36" points="5337.98,5092.5 5331.54,5211.15 5321.46,5395.91 5304.93,5699.48 4893.93,5699.48 4877.41,5395.91 4867.32,5211.15 4860.87,5092.5 "/>
  <polygon class="fil29" points="5331.54,5211.15 5330.2,5234.94 5328.9,5259.57 5321.46,5395.91 4877.41,5395.91 4869.97,5259.57 4868.65,5234.94 4867.32,5211.15 "/>
  <polygon class="fil36" points="5330.2,5234.94 5328.9,5259.57 4869.97,5259.57 4868.65,5234.94 "/>
  <g id="_2215524771904">
   <path class="fil37" d="M4566.67 3082.73c-6,6.17 -11.15,12.94 -15.41,20.18l-6.46 -3.33c-0.92,-4.14 -4.83,-6.99 -9.15,-6.48 -4.58,0.54 -7.87,4.7 -7.33,9.31 0.54,4.59 4.71,7.89 9.31,7.36l2.54 -0.74 6.26 3.25c-3.49,7.69 -6,15.82 -7.49,24.22l10.36 1.81c3.21,-18.13 11.81,-34.8 24.89,-48.22l-7.53 -7.36z"/>
   <path class="fil37" d="M4642.89 3050.76c-2.37,0 -4.74,0.08 -7.08,0.25l-1.02 -8.71c2.6,-2.06 4.11,-5.4 3.68,-8.94 -0.64,-5.46 -5.58,-9.36 -11.04,-8.72 -5.46,0.66 -9.36,5.58 -8.72,11.06 0.42,3.52 2.63,6.39 5.63,7.82l1.01 8.67c-9.91,1.61 -19.48,4.61 -28.59,8.98l4.54 9.49c12.96,-6.21 26.96,-9.36 41.6,-9.36 6.89,0 13.79,0.75 20.47,2.21l2.25 -10.3c-7.44,-1.61 -15.09,-2.43 -22.72,-2.43z"/>
   <path class="fil37" d="M4734.59 3086.15c4.6,-0.57 7.88,-4.74 7.31,-9.35 -0.57,-4.6 -4.75,-7.86 -9.33,-7.29 -4.3,0.53 -7.44,4.22 -7.36,8.44l-5.78 5.06c-5.8,-5.98 -12.36,-11.29 -19.57,-15.82l-5.59 8.91c15.75,9.93 28.07,23.97 35.61,40.64l9.58 -4.35c-3.48,-7.7 -7.87,-14.89 -13.08,-21.46l5.58 -4.87 2.64 0.09z"/>
   <path class="fil37" d="M4635.28 3192.56c-5.36,0.32 -10.75,0.48 -16.07,0.48 -12.22,0 -24.07,-0.85 -34.43,-2.48 -5.4,-0.87 -11.74,-2.15 -17.63,-4.05 14.53,25.83 42.63,43.4 74.82,43.4 39.67,0 73.1,-26.61 82.65,-62.56 -9.47,6.24 -20.92,11.46 -34.15,15.59 -16.37,5.11 -35.48,8.44 -55.19,9.63z"/>
   <path class="fil37" d="M4678.7 3149.7c-10.42,0 -18.89,-8.48 -18.89,-18.9 0,-10.42 8.47,-18.89 18.89,-18.89 10.42,0 18.89,8.48 18.89,18.89 0,10.42 -8.47,18.9 -18.89,18.9zm-65.79 12.61c-14.18,0 -25.7,-11.53 -25.7,-25.7 0,-14.17 11.52,-25.68 25.7,-25.68 14.15,0 25.68,11.51 25.68,25.68 0,14.17 -11.53,25.7 -25.68,25.7zm29.98 -90.49c-46.57,0 -84.44,37.03 -84.44,82.54 0,5.92 0.65,11.8 1.9,17.53 9.36,6.71 37.59,12.36 74.28,10.15 39.99,-2.41 73.57,-13.29 92.67,-29.99 -0.08,-2.7 -0.29,-5.41 -0.62,-8.08 -5.29,-41.13 -41.31,-72.15 -83.78,-72.15z"/>
   <path class="fil37" d="M4865.16 3097.76c-4.08,-1.61 -11.18,-4.3 -19.19,-3.3 -7.65,0.94 -11.72,4.72 -11.72,13.97l0 12.03 30.94 0 0 23.86 -30.94 0 0 75.76 -26.82 0 0 -75.76 -18.61 0 0 -23.86 18.61 0 0 -12.33c0,-23.33 12.43,-38.65 35.67,-38.65 8.92,0 16.07,1.69 22.09,4.29l-0.02 23.99z"/>
   <path class="fil37" d="M4930.48 3144.04c-2.46,-0.42 -4.97,-0.66 -7.32,-0.66 -12.43,0 -20.96,7.61 -20.96,22.44l0 54.26 -26.83 0 0 -99.62 26 0 0 10.91c6.28,-9.36 15.85,-13.57 28.08,-13.57 5.75,0 11.76,1.78 15.18,4.68l-14.15 21.56z"/>
   <path class="fil37" d="M4965.94 3160.87l44.08 0c-2.44,-12.75 -10.17,-19.94 -21.68,-19.94 -12.64,0 -20.04,7.61 -22.4,19.94zm71.03 9.25c0,3.09 -0.21,6.8 -0.52,9.06l-70.61 0c2.87,14.39 12.94,20.66 25.6,20.66 8.62,0 17.97,-3.48 25.17,-9.57l15.74 17.3c-11.32,10.37 -25.71,15.09 -42.46,15.09 -30.53,0 -51.7,-20.76 -51.7,-52.11 0,-31.35 20.56,-52.73 50.36,-52.73 28.68,0 48.32,21.28 48.42,52.31z"/>
   <path class="fil37" d="M5072.23 3160.87l44.09 0c-2.46,-12.75 -10.18,-19.94 -21.69,-19.94 -12.64,0 -20.04,7.61 -22.4,19.94zm71.03 9.25c0,3.09 -0.2,6.8 -0.52,9.06l-70.62 0c2.89,14.39 12.96,20.66 25.61,20.66 8.62,0 17.98,-3.48 25.18,-9.57l15.72 17.3c-11.31,10.37 -25.69,15.09 -42.44,15.09 -30.54,0 -51.71,-20.76 -51.71,-52.11 0,-31.35 20.56,-52.73 50.36,-52.73 28.68,0 48.32,21.28 48.42,52.31z"/>
   <path class="fil37" d="M5180.32 3170.23c0,15.72 10.38,27.44 25.6,27.44 15.83,0 25.7,-12.23 25.7,-27.44 0,-15.22 -9.86,-27.46 -25.7,-27.46 -15.22,0 -25.6,11.72 -25.6,27.46zm78.85 0c0,29.9 -20.76,52.42 -48.22,52.42 -13.36,0 -22.8,-5.24 -29.28,-12.95l0 51.5 -26.74 0 0 -140.74 26.22 0 0 11c6.47,-8.13 16.03,-13.67 29.69,-13.67 27.56,0 48.32,22.52 48.32,52.43z"/>
   <path class="fil37" d="M5298.69 3220.08l-26.83 0 0 -99.62 26.83 0 0 99.62zm3.58 -132.2c0,9.67 -7.5,17.07 -17.17,17.07 -9.65,0 -17.06,-7.41 -17.06,-17.07 0,-9.67 7.4,-17.28 17.06,-17.28 9.67,0 17.17,7.61 17.17,17.28z"/>
   <polygon class="fil37" points="5343.45,3155.94 5380.96,3120.46 5413.88,3120.46 5365.55,3167.34 5414.17,3220.08 5381.17,3220.08 5343.45,3179.79 5343.45,3220.08 5316.63,3220.08 5316.63,3072.07 5343.45,3072.07 "/>
  </g>
 </g>
</svg>
