<svg width="30" height="30" viewBox="0 0 30 30" fill="none" xmlns="http://www.w3.org/2000/svg">
<path d="M15 5C15 2.23858 17.2386 0 20 0H25V5C25 7.76142 22.7614 10 20 10V10C17.2386 10 15 7.76142 15 5V5Z" fill="#0084FF"/>
<rect x="15" y="10" width="10" height="10" rx="5" fill="#0084FF"/>
<path d="M15 25C15 22.2386 17.2386 20 20 20V20C22.7614 20 25 22.2386 25 25V25C25 27.7614 22.7614 30 20 30H15V25Z" fill="#0084FF"/>
<path d="M5 25C5 22.2386 7.23858 20 10 20V20C12.7614 20 15 22.2386 15 25V30H10C7.23858 30 5 27.7614 5 25V25Z" fill="#57D2FF"/>
<path d="M5 15C5 12.2386 7.23858 10 10 10V10C12.7614 10 15 12.2386 15 15V15C15 17.7614 12.7614 20 10 20H5V15Z" fill="#57D2FF"/>
</svg>
